<svg xmlns="http://www.w3.org/2000/svg" version="1.1" xmlns:xlink="http://www.w3.org/1999/xlink" xmlns:svgjs="http://svgjs.dev/svgjs" width="1440" height="560" preserveAspectRatio="none" viewBox="0 0 1440 560"><g mask="url(&quot;#SvgjsMask2140&quot;)" fill="none"><rect width="1440" height="560" x="0" y="0" fill="url(&quot;#SvgjsLinearGradient2141&quot;)"></rect><g mask="url(&quot;#SvgjsMask2142&quot;)"><path d="M715 209L737 209L759 209L781 209L803 209L825 209L847 209L869 209L891 209M231 275L253 275M407 253L429 275L451 275L473 275L495 275M671 231L693 231L715 231L737 231L759 231L781 231L803 231M583 231L605 253L627 253L649 253M561 231L583 253L605 275L627 275L649 275L671 275M297 253L319 275L341 275L363 275L385 275L407 275L429 297M737 187L759 187L781 187M275 253L297 275L319 297L341 297L363 297L385 297L407 297M-11 275L11 275L33 275L55 275L77 275L99 275L121 275L143 275L165 275L187 275L209 275L231 275L253 253L275 253L297 253L319 253L341 253L363 253L385 253L407 253L429 253L451 253L473 253L495 253L517 253L539 253L561 231L583 231L605 231L627 231L649 231L671 231L693 209L715 209L737 187L759 165" stroke="rgba(117, 191, 67, 1)" stroke-width="3.67"></path><path d="M753.5 165 a5.5 5.5 0 1 0 11 0 a5.5 5.5 0 1 0 -11 0zM885.5 209 a5.5 5.5 0 1 0 11 0 a5.5 5.5 0 1 0 -11 0zM247.5 275 a5.5 5.5 0 1 0 11 0 a5.5 5.5 0 1 0 -11 0zM489.5 275 a5.5 5.5 0 1 0 11 0 a5.5 5.5 0 1 0 -11 0zM797.5 231 a5.5 5.5 0 1 0 11 0 a5.5 5.5 0 1 0 -11 0zM643.5 253 a5.5 5.5 0 1 0 11 0 a5.5 5.5 0 1 0 -11 0zM665.5 275 a5.5 5.5 0 1 0 11 0 a5.5 5.5 0 1 0 -11 0zM423.5 297 a5.5 5.5 0 1 0 11 0 a5.5 5.5 0 1 0 -11 0zM775.5 187 a5.5 5.5 0 1 0 11 0 a5.5 5.5 0 1 0 -11 0zM401.5 297 a5.5 5.5 0 1 0 11 0 a5.5 5.5 0 1 0 -11 0z" fill="rgba(117, 191, 67, 1)"></path><path d="M143 319L165 297L187 297L209 297L231 297M297 341L319 319M231 341L253 319L275 319L297 319M121 297L143 297M407 319L429 341L451 341L473 341L495 319L517 319M-11 297L11 297L33 297L55 297L77 297L99 297L121 297L143 319L165 319L187 341L209 341L231 341L253 341L275 341L297 341L319 341L341 341L363 341L385 319L407 319L429 319L451 297" stroke="#3a7cc3" stroke-width="3.67"></path><path d="M445.5 297 a5.5 5.5 0 1 0 11 0 a5.5 5.5 0 1 0 -11 0zM225.5 297 a5.5 5.5 0 1 0 11 0 a5.5 5.5 0 1 0 -11 0zM313.5 319 a5.5 5.5 0 1 0 11 0 a5.5 5.5 0 1 0 -11 0zM291.5 319 a5.5 5.5 0 1 0 11 0 a5.5 5.5 0 1 0 -11 0zM137.5 297 a5.5 5.5 0 1 0 11 0 a5.5 5.5 0 1 0 -11 0zM511.5 319 a5.5 5.5 0 1 0 11 0 a5.5 5.5 0 1 0 -11 0z" fill="#3a7cc3"></path><path d="M759 143L781 121L803 121L825 121L847 121M583 209L605 187L627 187L649 187L671 187M561 209L583 187M-11 253L11 253L33 253L55 253L77 253L99 253L121 253L143 253L165 253L187 253L209 253L231 253L253 231L275 231L297 231L319 231L341 231L363 231L385 231L407 231L429 231L451 231L473 231L495 231L517 231L539 231L561 209L583 209L605 209L627 209L649 209L671 209L693 187L715 187L737 165L759 143L781 143" stroke="rgba(117, 191, 67, 1)" stroke-width="3.67"></path><path d="M775.5 143 a5.5 5.5 0 1 0 11 0 a5.5 5.5 0 1 0 -11 0zM841.5 121 a5.5 5.5 0 1 0 11 0 a5.5 5.5 0 1 0 -11 0zM665.5 187 a5.5 5.5 0 1 0 11 0 a5.5 5.5 0 1 0 -11 0zM577.5 187 a5.5 5.5 0 1 0 11 0 a5.5 5.5 0 1 0 -11 0z" fill="rgba(117, 191, 67, 1)"></path><path d="M979 429L1001 407L1023 407L1045 407L1067 407L1089 385L1111 385L1133 385L1155 385L1177 385M1001 429L1023 451L1045 451M55 319L77 341L99 341L121 341M847 385L869 363L891 363M1133 407L1155 429L1177 429L1199 429L1221 429L1243 429L1265 429L1287 429M429 363L451 385L473 385L495 385L517 363L539 363M737 363L759 341L781 341L803 319L825 319L847 319L869 341L891 341M539 341L561 319L583 319L605 297L627 297L649 297L671 297L693 297L715 297L737 297L759 297M693 363L715 341L737 341L759 319L781 319L803 297L825 297L847 297M33 319L55 341M891 385L913 407M1111 407L1133 429M407 363L429 385M671 363L693 341M-11 319L11 319L33 319L55 319L77 319L99 319L121 319L143 341L165 341L187 363L209 363L231 363L253 363L275 363L297 363L319 363L341 363L363 363L385 363L407 363L429 363L451 363L473 363L495 341L517 341L539 341L561 341L583 341L605 341L627 341L649 363L671 363L693 363L715 363L737 363L759 363L781 363L803 363L825 385L847 385L869 385L891 385L913 385L935 407L957 429L979 429L1001 429L1023 429L1045 429L1067 429L1089 429L1111 407L1133 407L1155 407L1177 407L1199 407" stroke="rgba(117, 191, 67, 1)" stroke-width="3.67"></path><path d="M1193.5 407 a5.5 5.5 0 1 0 11 0 a5.5 5.5 0 1 0 -11 0zM1171.5 385 a5.5 5.5 0 1 0 11 0 a5.5 5.5 0 1 0 -11 0zM1039.5 451 a5.5 5.5 0 1 0 11 0 a5.5 5.5 0 1 0 -11 0zM115.5 341 a5.5 5.5 0 1 0 11 0 a5.5 5.5 0 1 0 -11 0zM885.5 363 a5.5 5.5 0 1 0 11 0 a5.5 5.5 0 1 0 -11 0zM1281.5 429 a5.5 5.5 0 1 0 11 0 a5.5 5.5 0 1 0 -11 0zM533.5 363 a5.5 5.5 0 1 0 11 0 a5.5 5.5 0 1 0 -11 0zM885.5 341 a5.5 5.5 0 1 0 11 0 a5.5 5.5 0 1 0 -11 0zM753.5 297 a5.5 5.5 0 1 0 11 0 a5.5 5.5 0 1 0 -11 0zM841.5 297 a5.5 5.5 0 1 0 11 0 a5.5 5.5 0 1 0 -11 0zM49.5 341 a5.5 5.5 0 1 0 11 0 a5.5 5.5 0 1 0 -11 0zM907.5 407 a5.5 5.5 0 1 0 11 0 a5.5 5.5 0 1 0 -11 0zM1127.5 429 a5.5 5.5 0 1 0 11 0 a5.5 5.5 0 1 0 -11 0zM423.5 385 a5.5 5.5 0 1 0 11 0 a5.5 5.5 0 1 0 -11 0zM687.5 341 a5.5 5.5 0 1 0 11 0 a5.5 5.5 0 1 0 -11 0z" fill="rgba(117, 191, 67, 1)"></path><path d="M451 209L473 187L495 187M275 209L297 187L319 187M407 209L429 187L451 187M253 209L275 187M671 165L693 143L715 121L737 121L759 121M649 165L671 143L693 121M627 165L649 143L671 121L693 99M99 231L121 209L143 209L165 209L187 209L209 209L231 209L253 187L275 165L297 165L319 165L341 165L363 165M-11 231L11 231L33 231L55 231L77 231L99 231L121 231L143 231L165 231L187 231L209 231L231 231L253 209L275 209L297 209L319 209L341 209L363 209L385 209L407 209L429 209L451 209L473 209L495 209L517 209L539 187L561 165L583 165L605 165L627 165L649 165L671 165L693 165L715 165" stroke="rgba(117, 191, 67, 1)" stroke-width="3.67"></path><path d="M709.5 165 a5.5 5.5 0 1 0 11 0 a5.5 5.5 0 1 0 -11 0zM489.5 187 a5.5 5.5 0 1 0 11 0 a5.5 5.5 0 1 0 -11 0zM313.5 187 a5.5 5.5 0 1 0 11 0 a5.5 5.5 0 1 0 -11 0zM445.5 187 a5.5 5.5 0 1 0 11 0 a5.5 5.5 0 1 0 -11 0zM269.5 187 a5.5 5.5 0 1 0 11 0 a5.5 5.5 0 1 0 -11 0zM753.5 121 a5.5 5.5 0 1 0 11 0 a5.5 5.5 0 1 0 -11 0zM687.5 121 a5.5 5.5 0 1 0 11 0 a5.5 5.5 0 1 0 -11 0zM687.5 99 a5.5 5.5 0 1 0 11 0 a5.5 5.5 0 1 0 -11 0zM357.5 165 a5.5 5.5 0 1 0 11 0 a5.5 5.5 0 1 0 -11 0z" fill="rgba(117, 191, 67, 1)"></path><path d="M605 385L627 363M1133 451L1155 473L1177 473L1199 473L1221 473L1243 473L1265 495L1287 495M913 429L935 451L957 473L979 495M275 407L297 385L319 385L341 385M1001 473L1023 495M759 385L781 407M671 385L693 407L715 429L737 429L759 451L781 451L803 451L825 451L847 451L869 429M715 385L737 407L759 407L781 429L803 429L825 429L847 429M1089 451L1111 473L1133 473L1155 495L1177 495L1199 495L1221 495L1243 495M957 451L979 451L1001 451M517 385L539 407L561 407L583 407L605 407L627 407L649 407L671 407L693 429L715 451L737 451L759 473L781 473L803 473L825 473L847 473L869 473M253 385L275 385M363 407L385 385L407 385M-11 341L11 363L33 363L55 363L77 363L99 363L121 363L143 363L165 363L187 385L209 385L231 385L253 385L275 407L297 407L319 407L341 407L363 407L385 407L407 407L429 407L451 407L473 407L495 407L517 385L539 385L561 385L583 385L605 385L627 385L649 385L671 385L693 385L715 385L737 385L759 385L781 385L803 385L825 407L847 407L869 407L891 429L913 429L935 429L957 451L979 473L1001 473L1023 473L1045 473L1067 451L1089 451L1111 451L1133 451L1155 451L1177 451" stroke="rgba(117, 191, 67, 1)" stroke-width="3.67"></path><path d="M1171.5 451 a5.5 5.5 0 1 0 11 0 a5.5 5.5 0 1 0 -11 0zM621.5 363 a5.5 5.5 0 1 0 11 0 a5.5 5.5 0 1 0 -11 0zM1281.5 495 a5.5 5.5 0 1 0 11 0 a5.5 5.5 0 1 0 -11 0zM973.5 495 a5.5 5.5 0 1 0 11 0 a5.5 5.5 0 1 0 -11 0zM335.5 385 a5.5 5.5 0 1 0 11 0 a5.5 5.5 0 1 0 -11 0zM1017.5 495 a5.5 5.5 0 1 0 11 0 a5.5 5.5 0 1 0 -11 0zM775.5 407 a5.5 5.5 0 1 0 11 0 a5.5 5.5 0 1 0 -11 0zM863.5 429 a5.5 5.5 0 1 0 11 0 a5.5 5.5 0 1 0 -11 0zM841.5 429 a5.5 5.5 0 1 0 11 0 a5.5 5.5 0 1 0 -11 0zM1237.5 495 a5.5 5.5 0 1 0 11 0 a5.5 5.5 0 1 0 -11 0zM995.5 451 a5.5 5.5 0 1 0 11 0 a5.5 5.5 0 1 0 -11 0zM863.5 473 a5.5 5.5 0 1 0 11 0 a5.5 5.5 0 1 0 -11 0zM269.5 385 a5.5 5.5 0 1 0 11 0 a5.5 5.5 0 1 0 -11 0zM401.5 385 a5.5 5.5 0 1 0 11 0 a5.5 5.5 0 1 0 -11 0z" fill="rgba(117, 191, 67, 1)"></path><path d="M-11 209L11 209L33 209" stroke="#3a7cc3" stroke-width="3.67"></path><path d="M27.5 209 a5.5 5.5 0 1 0 11 0 a5.5 5.5 0 1 0 -11 0z" fill="#3a7cc3"></path><path d="M451 429L473 451L495 451L517 451L539 451L561 451L583 451M407 429L429 451M143 385L165 385M-11 363L11 385L33 385L55 385L77 385L99 385L121 385L143 385L165 407L187 407L209 407L231 407L253 407L275 429L297 429L319 429L341 429L363 429L385 429L407 429L429 429L451 429L473 429" stroke="#3a7cc3" stroke-width="3.67"></path><path d="M467.5 429 a5.5 5.5 0 1 0 11 0 a5.5 5.5 0 1 0 -11 0zM577.5 451 a5.5 5.5 0 1 0 11 0 a5.5 5.5 0 1 0 -11 0zM423.5 451 a5.5 5.5 0 1 0 11 0 a5.5 5.5 0 1 0 -11 0zM159.5 385 a5.5 5.5 0 1 0 11 0 a5.5 5.5 0 1 0 -11 0z" fill="#3a7cc3"></path><path d="M121 143L143 165L165 165L187 165M253 143L275 143L297 143M77 165L99 187L121 187L143 187M341 121L363 143L385 143L407 143L429 143M-11 187L11 187L33 187L55 165L77 165L99 165L121 143L143 143L165 143L187 143L209 143L231 143L253 143L275 121L297 121L319 121L341 121L363 121L385 121" stroke="rgba(117, 191, 67, 1)" stroke-width="3.67"></path><path d="M379.5 121 a5.5 5.5 0 1 0 11 0 a5.5 5.5 0 1 0 -11 0zM181.5 165 a5.5 5.5 0 1 0 11 0 a5.5 5.5 0 1 0 -11 0zM291.5 143 a5.5 5.5 0 1 0 11 0 a5.5 5.5 0 1 0 -11 0zM137.5 187 a5.5 5.5 0 1 0 11 0 a5.5 5.5 0 1 0 -11 0zM423.5 143 a5.5 5.5 0 1 0 11 0 a5.5 5.5 0 1 0 -11 0z" fill="rgba(117, 191, 67, 1)"></path><path d="M-11 385L11 407L33 407L55 407L77 407L99 407L121 407L143 407L165 429L187 429L209 429L231 429L253 429L275 451L297 451" stroke="#3a7cc3" stroke-width="3.67"></path><path d="M291.5 451 a5.5 5.5 0 1 0 11 0 a5.5 5.5 0 1 0 -11 0z" fill="#3a7cc3"></path><path d="M407 99L429 121L451 121L473 121M737 99L759 77L781 77L803 77L825 77L847 77L869 77L891 77L913 77L935 77M473 99L495 77M209 121L231 121L253 121M693 77L715 77L737 77M605 77L627 99L649 99L671 99M869 99L891 121M297 99L319 77M275 99L297 77M253 99L275 77M-11 165L11 165L33 165L55 143L77 143L99 143L121 121L143 121L165 121L187 121L209 121L231 99L253 99L275 99L297 99L319 99L341 99L363 99L385 99L407 99L429 99L451 99L473 99L495 99L517 77L539 77L561 77L583 77L605 77L627 77L649 77L671 77L693 77L715 99L737 99L759 99L781 99L803 99L825 99L847 99L869 99L891 99" stroke="rgba(117, 191, 67, 1)" stroke-width="3.67"></path><path d="M885.5 99 a5.5 5.5 0 1 0 11 0 a5.5 5.5 0 1 0 -11 0zM467.5 121 a5.5 5.5 0 1 0 11 0 a5.5 5.5 0 1 0 -11 0zM929.5 77 a5.5 5.5 0 1 0 11 0 a5.5 5.5 0 1 0 -11 0zM489.5 77 a5.5 5.5 0 1 0 11 0 a5.5 5.5 0 1 0 -11 0zM247.5 121 a5.5 5.5 0 1 0 11 0 a5.5 5.5 0 1 0 -11 0zM731.5 77 a5.5 5.5 0 1 0 11 0 a5.5 5.5 0 1 0 -11 0zM665.5 99 a5.5 5.5 0 1 0 11 0 a5.5 5.5 0 1 0 -11 0zM885.5 121 a5.5 5.5 0 1 0 11 0 a5.5 5.5 0 1 0 -11 0zM313.5 77 a5.5 5.5 0 1 0 11 0 a5.5 5.5 0 1 0 -11 0zM291.5 77 a5.5 5.5 0 1 0 11 0 a5.5 5.5 0 1 0 -11 0zM269.5 77 a5.5 5.5 0 1 0 11 0 a5.5 5.5 0 1 0 -11 0z" fill="rgba(117, 191, 67, 1)"></path><path d="M693 495L715 473L737 473M33 429L55 451M803 495L825 517L847 517L869 517L891 517L913 517L935 495L957 495L979 517L1001 517L1023 517L1045 517L1067 517L1089 517L1111 517L1133 517M385 451L407 451M11 429L33 451L55 473L77 473L99 473L121 473M341 451L363 473L385 473L407 495L429 495L451 517L473 517L495 517L517 517L539 517L561 517M649 495L671 473L693 473M715 495L737 517L759 517L781 517L803 517M187 451L209 473L231 473L253 473M-11 407L11 429L33 429L55 429L77 429L99 429L121 429L143 429L165 451L187 451L209 451L231 451L253 451L275 473L297 473L319 451L341 451L363 451L385 451L407 473L429 473L451 495L473 495L495 495L517 495L539 495L561 495L583 495L605 495L627 495L649 495L671 495L693 495L715 495L737 495L759 495L781 495L803 495L825 495" stroke="rgba(117, 191, 67, 1)" stroke-width="3.67"></path><path d="M819.5 495 a5.5 5.5 0 1 0 11 0 a5.5 5.5 0 1 0 -11 0zM731.5 473 a5.5 5.5 0 1 0 11 0 a5.5 5.5 0 1 0 -11 0zM49.5 451 a5.5 5.5 0 1 0 11 0 a5.5 5.5 0 1 0 -11 0zM1127.5 517 a5.5 5.5 0 1 0 11 0 a5.5 5.5 0 1 0 -11 0zM401.5 451 a5.5 5.5 0 1 0 11 0 a5.5 5.5 0 1 0 -11 0zM115.5 473 a5.5 5.5 0 1 0 11 0 a5.5 5.5 0 1 0 -11 0zM555.5 517 a5.5 5.5 0 1 0 11 0 a5.5 5.5 0 1 0 -11 0zM687.5 473 a5.5 5.5 0 1 0 11 0 a5.5 5.5 0 1 0 -11 0zM797.5 517 a5.5 5.5 0 1 0 11 0 a5.5 5.5 0 1 0 -11 0zM247.5 473 a5.5 5.5 0 1 0 11 0 a5.5 5.5 0 1 0 -11 0z" fill="rgba(117, 191, 67, 1)"></path><path d="M363 77L385 55M231 77L253 77M11 143L33 121L55 99L77 99L99 99L121 77L143 77M1045 77L1067 55L1089 55L1111 55L1133 55L1155 55L1177 55M1067 77L1089 99L1111 99L1133 99M341 77L363 55M935 55L957 55L979 55L1001 55L1023 55L1045 55M1243 77L1265 77L1287 99M407 77L429 55L451 55M1023 77L1045 99L1067 99L1089 121L1111 121L1133 121M1177 77L1199 99L1221 99L1243 99L1265 121M165 99L187 77L209 77L231 55M1199 77L1221 55L1243 55L1265 55L1287 55M979 77L1001 99L1023 99L1045 121M-11 143L11 143L33 143L55 121L77 121L99 121L121 99L143 99L165 99L187 99L209 99L231 77L253 55L275 55L297 55L319 55L341 77L363 77L385 77L407 77L429 77L451 77L473 55L495 55L517 55L539 55L561 55L583 55L605 55L627 55L649 55L671 55L693 55L715 55L737 55L759 55L781 55L803 55L825 55L847 55L869 55L891 55L913 55L935 55L957 77L979 77L1001 77L1023 77L1045 77L1067 77L1089 77L1111 77L1133 77L1155 77L1177 77L1199 77L1221 77L1243 77L1265 99" stroke="rgba(117, 191, 67, 1)" stroke-width="3.67"></path><path d="M1259.5 99 a5.5 5.5 0 1 0 11 0 a5.5 5.5 0 1 0 -11 0zM379.5 55 a5.5 5.5 0 1 0 11 0 a5.5 5.5 0 1 0 -11 0zM247.5 77 a5.5 5.5 0 1 0 11 0 a5.5 5.5 0 1 0 -11 0zM137.5 77 a5.5 5.5 0 1 0 11 0 a5.5 5.5 0 1 0 -11 0zM1171.5 55 a5.5 5.5 0 1 0 11 0 a5.5 5.5 0 1 0 -11 0zM1127.5 99 a5.5 5.5 0 1 0 11 0 a5.5 5.5 0 1 0 -11 0zM357.5 55 a5.5 5.5 0 1 0 11 0 a5.5 5.5 0 1 0 -11 0zM1039.5 55 a5.5 5.5 0 1 0 11 0 a5.5 5.5 0 1 0 -11 0zM1281.5 99 a5.5 5.5 0 1 0 11 0 a5.5 5.5 0 1 0 -11 0zM445.5 55 a5.5 5.5 0 1 0 11 0 a5.5 5.5 0 1 0 -11 0zM1127.5 121 a5.5 5.5 0 1 0 11 0 a5.5 5.5 0 1 0 -11 0zM1259.5 121 a5.5 5.5 0 1 0 11 0 a5.5 5.5 0 1 0 -11 0zM225.5 55 a5.5 5.5 0 1 0 11 0 a5.5 5.5 0 1 0 -11 0zM1281.5 55 a5.5 5.5 0 1 0 11 0 a5.5 5.5 0 1 0 -11 0zM1039.5 121 a5.5 5.5 0 1 0 11 0 a5.5 5.5 0 1 0 -11 0z" fill="rgba(117, 191, 67, 1)"></path></g></g><defs><mask id="SvgjsMask2140"><rect width="1440" height="560" fill="#ffffff"></rect></mask><linearGradient x1="15.28%" y1="-39.29%" x2="84.72%" y2="139.29%" gradientUnits="userSpaceOnUse" id="SvgjsLinearGradient2141"><stop stop-color="#0e2a47" offset="0"></stop><stop stop-color="rgba(5, 82, 0, 1)" offset="1"></stop></linearGradient><mask id="SvgjsMask2142"><rect width="1440" height="560" fill="white"></rect><path d="M756.25 165 a2.75 2.75 0 1 0 5.5 0 a2.75 2.75 0 1 0 -5.5 0zM888.25 209 a2.75 2.75 0 1 0 5.5 0 a2.75 2.75 0 1 0 -5.5 0zM250.25 275 a2.75 2.75 0 1 0 5.5 0 a2.75 2.75 0 1 0 -5.5 0zM492.25 275 a2.75 2.75 0 1 0 5.5 0 a2.75 2.75 0 1 0 -5.5 0zM800.25 231 a2.75 2.75 0 1 0 5.5 0 a2.75 2.75 0 1 0 -5.5 0zM646.25 253 a2.75 2.75 0 1 0 5.5 0 a2.75 2.75 0 1 0 -5.5 0zM668.25 275 a2.75 2.75 0 1 0 5.5 0 a2.75 2.75 0 1 0 -5.5 0zM426.25 297 a2.75 2.75 0 1 0 5.5 0 a2.75 2.75 0 1 0 -5.5 0zM778.25 187 a2.75 2.75 0 1 0 5.5 0 a2.75 2.75 0 1 0 -5.5 0zM404.25 297 a2.75 2.75 0 1 0 5.5 0 a2.75 2.75 0 1 0 -5.5 0z" fill="black"></path><path d="M448.25 297 a2.75 2.75 0 1 0 5.5 0 a2.75 2.75 0 1 0 -5.5 0zM228.25 297 a2.75 2.75 0 1 0 5.5 0 a2.75 2.75 0 1 0 -5.5 0zM316.25 319 a2.75 2.75 0 1 0 5.5 0 a2.75 2.75 0 1 0 -5.5 0zM294.25 319 a2.75 2.75 0 1 0 5.5 0 a2.75 2.75 0 1 0 -5.5 0zM140.25 297 a2.75 2.75 0 1 0 5.5 0 a2.75 2.75 0 1 0 -5.5 0zM514.25 319 a2.75 2.75 0 1 0 5.5 0 a2.75 2.75 0 1 0 -5.5 0z" fill="black"></path><path d="M778.25 143 a2.75 2.75 0 1 0 5.5 0 a2.75 2.75 0 1 0 -5.5 0zM844.25 121 a2.75 2.75 0 1 0 5.5 0 a2.75 2.75 0 1 0 -5.5 0zM668.25 187 a2.75 2.75 0 1 0 5.5 0 a2.75 2.75 0 1 0 -5.5 0zM580.25 187 a2.75 2.75 0 1 0 5.5 0 a2.75 2.75 0 1 0 -5.5 0z" fill="black"></path><path d="M1196.25 407 a2.75 2.75 0 1 0 5.5 0 a2.75 2.75 0 1 0 -5.5 0zM1174.25 385 a2.75 2.75 0 1 0 5.5 0 a2.75 2.75 0 1 0 -5.5 0zM1042.25 451 a2.75 2.75 0 1 0 5.5 0 a2.75 2.75 0 1 0 -5.5 0zM118.25 341 a2.75 2.75 0 1 0 5.5 0 a2.75 2.75 0 1 0 -5.5 0zM888.25 363 a2.75 2.75 0 1 0 5.5 0 a2.75 2.75 0 1 0 -5.5 0zM1284.25 429 a2.75 2.75 0 1 0 5.5 0 a2.75 2.75 0 1 0 -5.5 0zM536.25 363 a2.75 2.75 0 1 0 5.5 0 a2.75 2.75 0 1 0 -5.5 0zM888.25 341 a2.75 2.75 0 1 0 5.5 0 a2.75 2.75 0 1 0 -5.5 0zM756.25 297 a2.75 2.75 0 1 0 5.5 0 a2.75 2.75 0 1 0 -5.5 0zM844.25 297 a2.75 2.75 0 1 0 5.5 0 a2.75 2.75 0 1 0 -5.5 0zM52.25 341 a2.75 2.75 0 1 0 5.5 0 a2.75 2.75 0 1 0 -5.5 0zM910.25 407 a2.75 2.75 0 1 0 5.5 0 a2.75 2.75 0 1 0 -5.5 0zM1130.25 429 a2.75 2.75 0 1 0 5.5 0 a2.75 2.75 0 1 0 -5.5 0zM426.25 385 a2.75 2.75 0 1 0 5.5 0 a2.75 2.75 0 1 0 -5.5 0zM690.25 341 a2.75 2.75 0 1 0 5.5 0 a2.75 2.75 0 1 0 -5.5 0z" fill="black"></path><path d="M712.25 165 a2.75 2.75 0 1 0 5.5 0 a2.75 2.75 0 1 0 -5.5 0zM492.25 187 a2.75 2.75 0 1 0 5.5 0 a2.75 2.75 0 1 0 -5.5 0zM316.25 187 a2.75 2.75 0 1 0 5.5 0 a2.75 2.75 0 1 0 -5.5 0zM448.25 187 a2.75 2.75 0 1 0 5.5 0 a2.75 2.75 0 1 0 -5.5 0zM272.25 187 a2.75 2.75 0 1 0 5.5 0 a2.75 2.75 0 1 0 -5.5 0zM756.25 121 a2.75 2.75 0 1 0 5.5 0 a2.75 2.75 0 1 0 -5.5 0zM690.25 121 a2.75 2.75 0 1 0 5.5 0 a2.75 2.75 0 1 0 -5.5 0zM690.25 99 a2.75 2.75 0 1 0 5.5 0 a2.75 2.75 0 1 0 -5.5 0zM360.25 165 a2.75 2.75 0 1 0 5.5 0 a2.75 2.75 0 1 0 -5.5 0z" fill="black"></path><path d="M1174.25 451 a2.75 2.75 0 1 0 5.5 0 a2.75 2.75 0 1 0 -5.5 0zM624.25 363 a2.75 2.75 0 1 0 5.5 0 a2.75 2.75 0 1 0 -5.5 0zM1284.25 495 a2.75 2.75 0 1 0 5.5 0 a2.75 2.75 0 1 0 -5.5 0zM976.25 495 a2.75 2.75 0 1 0 5.5 0 a2.75 2.75 0 1 0 -5.5 0zM338.25 385 a2.75 2.75 0 1 0 5.5 0 a2.75 2.75 0 1 0 -5.5 0zM1020.25 495 a2.75 2.75 0 1 0 5.5 0 a2.75 2.75 0 1 0 -5.5 0zM778.25 407 a2.75 2.75 0 1 0 5.5 0 a2.75 2.75 0 1 0 -5.5 0zM866.25 429 a2.75 2.75 0 1 0 5.5 0 a2.75 2.75 0 1 0 -5.5 0zM844.25 429 a2.75 2.75 0 1 0 5.5 0 a2.75 2.75 0 1 0 -5.5 0zM1240.25 495 a2.75 2.75 0 1 0 5.5 0 a2.75 2.75 0 1 0 -5.5 0zM998.25 451 a2.75 2.75 0 1 0 5.5 0 a2.75 2.75 0 1 0 -5.5 0zM866.25 473 a2.75 2.75 0 1 0 5.5 0 a2.75 2.75 0 1 0 -5.5 0zM272.25 385 a2.75 2.75 0 1 0 5.5 0 a2.75 2.75 0 1 0 -5.5 0zM404.25 385 a2.75 2.75 0 1 0 5.5 0 a2.75 2.75 0 1 0 -5.5 0z" fill="black"></path><path d="M30.25 209 a2.75 2.75 0 1 0 5.5 0 a2.75 2.75 0 1 0 -5.5 0z" fill="black"></path><path d="M470.25 429 a2.75 2.75 0 1 0 5.5 0 a2.75 2.75 0 1 0 -5.5 0zM580.25 451 a2.75 2.75 0 1 0 5.5 0 a2.75 2.75 0 1 0 -5.5 0zM426.25 451 a2.75 2.75 0 1 0 5.5 0 a2.75 2.75 0 1 0 -5.5 0zM162.25 385 a2.75 2.75 0 1 0 5.5 0 a2.75 2.75 0 1 0 -5.5 0z" fill="black"></path><path d="M382.25 121 a2.75 2.75 0 1 0 5.5 0 a2.75 2.75 0 1 0 -5.5 0zM184.25 165 a2.75 2.75 0 1 0 5.5 0 a2.75 2.75 0 1 0 -5.5 0zM294.25 143 a2.75 2.75 0 1 0 5.5 0 a2.75 2.75 0 1 0 -5.5 0zM140.25 187 a2.75 2.75 0 1 0 5.5 0 a2.75 2.75 0 1 0 -5.5 0zM426.25 143 a2.75 2.75 0 1 0 5.5 0 a2.75 2.75 0 1 0 -5.5 0z" fill="black"></path><path d="M294.25 451 a2.75 2.75 0 1 0 5.5 0 a2.75 2.75 0 1 0 -5.5 0z" fill="black"></path><path d="M888.25 99 a2.75 2.75 0 1 0 5.5 0 a2.75 2.75 0 1 0 -5.5 0zM470.25 121 a2.75 2.75 0 1 0 5.5 0 a2.75 2.75 0 1 0 -5.5 0zM932.25 77 a2.75 2.75 0 1 0 5.5 0 a2.75 2.75 0 1 0 -5.5 0zM492.25 77 a2.75 2.75 0 1 0 5.5 0 a2.75 2.75 0 1 0 -5.5 0zM250.25 121 a2.75 2.75 0 1 0 5.5 0 a2.75 2.75 0 1 0 -5.5 0zM734.25 77 a2.75 2.75 0 1 0 5.5 0 a2.75 2.75 0 1 0 -5.5 0zM668.25 99 a2.75 2.75 0 1 0 5.5 0 a2.75 2.75 0 1 0 -5.5 0zM888.25 121 a2.75 2.75 0 1 0 5.5 0 a2.75 2.75 0 1 0 -5.5 0zM316.25 77 a2.75 2.75 0 1 0 5.5 0 a2.75 2.75 0 1 0 -5.5 0zM294.25 77 a2.75 2.75 0 1 0 5.5 0 a2.75 2.75 0 1 0 -5.5 0zM272.25 77 a2.75 2.75 0 1 0 5.5 0 a2.75 2.75 0 1 0 -5.5 0z" fill="black"></path><path d="M822.25 495 a2.75 2.75 0 1 0 5.5 0 a2.75 2.75 0 1 0 -5.5 0zM734.25 473 a2.75 2.75 0 1 0 5.5 0 a2.75 2.75 0 1 0 -5.5 0zM52.25 451 a2.75 2.75 0 1 0 5.5 0 a2.75 2.75 0 1 0 -5.5 0zM1130.25 517 a2.75 2.75 0 1 0 5.5 0 a2.75 2.75 0 1 0 -5.5 0zM404.25 451 a2.75 2.75 0 1 0 5.5 0 a2.75 2.75 0 1 0 -5.5 0zM118.25 473 a2.75 2.75 0 1 0 5.5 0 a2.75 2.75 0 1 0 -5.5 0zM558.25 517 a2.75 2.75 0 1 0 5.5 0 a2.75 2.75 0 1 0 -5.5 0zM690.25 473 a2.75 2.75 0 1 0 5.5 0 a2.75 2.75 0 1 0 -5.5 0zM800.25 517 a2.75 2.75 0 1 0 5.5 0 a2.75 2.75 0 1 0 -5.5 0zM250.25 473 a2.75 2.75 0 1 0 5.5 0 a2.75 2.75 0 1 0 -5.5 0z" fill="black"></path><path d="M1262.25 99 a2.75 2.75 0 1 0 5.5 0 a2.75 2.75 0 1 0 -5.5 0zM382.25 55 a2.75 2.75 0 1 0 5.5 0 a2.75 2.75 0 1 0 -5.5 0zM250.25 77 a2.75 2.75 0 1 0 5.5 0 a2.75 2.75 0 1 0 -5.5 0zM140.25 77 a2.75 2.75 0 1 0 5.5 0 a2.75 2.75 0 1 0 -5.5 0zM1174.25 55 a2.75 2.75 0 1 0 5.5 0 a2.75 2.75 0 1 0 -5.5 0zM1130.25 99 a2.75 2.75 0 1 0 5.5 0 a2.75 2.75 0 1 0 -5.5 0zM360.25 55 a2.75 2.75 0 1 0 5.5 0 a2.75 2.75 0 1 0 -5.5 0zM1042.25 55 a2.75 2.75 0 1 0 5.5 0 a2.75 2.75 0 1 0 -5.5 0zM1284.25 99 a2.75 2.75 0 1 0 5.5 0 a2.75 2.75 0 1 0 -5.5 0zM448.25 55 a2.75 2.75 0 1 0 5.5 0 a2.75 2.75 0 1 0 -5.5 0zM1130.25 121 a2.75 2.75 0 1 0 5.5 0 a2.75 2.75 0 1 0 -5.5 0zM1262.25 121 a2.75 2.75 0 1 0 5.5 0 a2.75 2.75 0 1 0 -5.5 0zM228.25 55 a2.75 2.75 0 1 0 5.5 0 a2.75 2.75 0 1 0 -5.5 0zM1284.25 55 a2.75 2.75 0 1 0 5.5 0 a2.75 2.75 0 1 0 -5.5 0zM1042.25 121 a2.75 2.75 0 1 0 5.5 0 a2.75 2.75 0 1 0 -5.5 0z" fill="black"></path></mask></defs></svg>